<?xml version="1.0" standalone="no"?>
<!DOCTYPE svg PUBLIC "-//W3C//DTD SVG 20010904//EN"
 "http://www.w3.org/TR/2001/REC-SVG-20010904/DTD/svg10.dtd">
<svg version="1.0" xmlns="http://www.w3.org/2000/svg"
 width="228.000000pt" height="304.000000pt" viewBox="0 0 228.000000 304.000000"
 preserveAspectRatio="xMidYMid meet">

<g transform="translate(0.000000,304.000000) scale(0.100000,-0.100000)"
fill="#000000" stroke="none">
<path d="M1040 2445 c-68 -19 -154 -77 -196 -132 -68 -89 -93 -226 -60 -320
14 -39 13 -42 -15 -84 -60 -91 -88 -223 -70 -329 45 -255 291 -418 534 -355
313 81 458 445 283 708 -47 70 -90 109 -165 147 -115 58 -260 59 -380 4 -30
-13 -56 -22 -59 -19 -13 13 -1 110 18 151 40 82 148 133 244 115 91 -17 154
-81 171 -174 l7 -37 64 0 c74 0 74 1 48 90 -54 181 -242 285 -424 235z m195
-536 c-7 -30 -6 -31 22 -25 26 6 35 2 64 -31 19 -21 45 -56 59 -78 24 -38 24
-39 30 -15 6 22 11 16 43 -50 20 -42 36 -66 37 -55 1 16 4 15 17 -10 9 -16 22
-51 29 -77 11 -45 10 -51 -14 -100 -36 -74 -127 -162 -204 -198 -197 -92 -432
-27 -543 150 -39 64 -38 75 4 37 63 -56 117 -80 196 -84 58 -3 66 -1 45 8
l-25 11 25 10 c32 12 60 38 60 55 0 8 -4 11 -10 8 -27 -17 -5 31 31 68 45 46
69 92 69 132 0 34 -13 31 -32 -8 -35 -74 -139 -157 -196 -157 -35 0 -65 19
-58 37 4 9 1 22 -5 29 -9 11 -5 14 20 14 21 0 30 -4 25 -11 -4 -7 -1 -10 7 -7
26 9 44 54 33 85 -5 15 -12 26 -14 23 -3 -2 -16 3 -30 13 -30 21 -56 22 -64 2
-4 -12 -10 -10 -31 9 -14 13 -25 28 -25 34 0 6 -8 15 -17 21 -15 8 -15 11 -3
26 21 25 100 77 100 66 0 -5 -10 -17 -22 -27 l-23 -16 25 6 c14 3 33 6 43 6
21 0 23 17 2 22 -14 3 -14 6 0 26 22 31 86 61 142 68 45 5 47 4 29 -10 -29
-24 -13 -29 30 -10 43 18 89 31 117 33 16 1 17 -4 12 -30z"/>
<path d="M1115 1896 c-72 -34 -105 -62 -41 -36 67 28 111 31 110 7 -2 -17 -1
-17 17 -1 10 9 19 25 19 36 0 25 -42 23 -105 -6z"/>
<path d="M950 1860 c0 -25 11 -25 41 0 l24 19 -32 1 c-26 0 -33 -4 -33 -20z"/>
<path d="M1250 1765 c0 -52 -44 -163 -81 -201 -52 -54 1 -31 67 28 l54 50 12
-29 c6 -15 12 -66 12 -113 1 -70 -3 -92 -22 -127 -34 -65 -3 -56 53 15 48 60
76 132 74 191 l-1 36 -12 -29 -13 -29 -7 39 c-4 21 -17 56 -28 79 -24 47 -85
125 -99 125 -5 0 -9 -16 -9 -35z"/>
</g>
</svg>
