<?xml version="1.0" standalone="no"?>
<!DOCTYPE svg PUBLIC "-//W3C//DTD SVG 20010904//EN"
 "http://www.w3.org/TR/2001/REC-SVG-20010904/DTD/svg10.dtd">
<svg version="1.0" xmlns="http://www.w3.org/2000/svg"
 width="1182.000000pt" height="887.000000pt" viewBox="0 0 1182.000000 887.000000"
 preserveAspectRatio="xMidYMid meet">

<g transform="translate(0.000000,887.000000) scale(0.100000,-0.100000)"
fill="#000000" stroke="none">
<path d="M4566 6493 c-3 -4 -12 -8 -19 -10 -89 -19 -206 -71 -295 -132 -218
-148 -372 -388 -412 -642 -8 -54 -10 -416 -8 -1319 l3 -1245 23 -75 c125 -404
442 -667 853 -710 137 -14 2261 -14 2398 0 248 26 451 126 621 306 111 118
188 254 233 412 22 76 22 86 22 782 0 749 -1 770 -46 770 -16 0 -19 8 -19 46
0 30 4 43 11 39 6 -4 5 2 -3 14 -7 12 -21 21 -30 21 -10 0 -18 4 -18 9 0 5
-10 11 -22 14 -49 12 -99 34 -121 55 -13 12 -31 22 -40 22 -9 0 -17 5 -17 10
0 6 -9 10 -20 10 -13 0 -20 7 -20 19 0 15 -10 21 -40 26 -25 4 -40 12 -40 21
0 8 -9 14 -20 14 -11 0 -20 4 -20 8 0 9 -89 52 -108 52 -7 0 -12 4 -12 9 0 4
-36 31 -80 59 -44 28 -80 56 -80 62 0 5 -16 10 -35 10 -20 0 -35 5 -35 12 0 6
-6 3 -14 -7 -16 -22 -11 -39 10 -31 9 3 11 0 7 -11 -4 -10 -2 -14 5 -9 6 3 13
2 16 -3 4 -5 1 -13 -5 -17 -8 -5 -9 -3 -4 6 5 9 4 11 -4 6 -8 -6 -9 -12 -2
-20 6 -7 9 -15 6 -18 -3 -3 1 -11 9 -17 8 -7 12 -19 9 -27 -3 -8 0 -14 7 -14
7 0 10 -8 7 -20 -3 -11 -1 -18 4 -14 5 3 9 -2 9 -11 0 -9 3 -14 8 -12 4 3 7
-9 6 -26 -1 -18 5 -49 12 -70 45 -129 69 -362 54 -527 -18 -192 -58 -336 -142
-504 -116 -233 -268 -406 -483 -548 -240 -160 -480 -231 -775 -232 -241 0
-413 40 -625 147 -282 141 -488 345 -627 621 -169 337 -199 721 -82 1076 38
115 137 305 208 401 114 150 310 321 455 394 127 63 261 -7 261 -137 0 -81
-29 -119 -134 -178 -143 -80 -288 -225 -380 -380 -162 -274 -191 -630 -75
-930 110 -286 370 -534 659 -628 218 -71 474 -71 686 2 189 64 381 202 503
360 184 239 260 565 200 859 -45 224 -129 377 -301 550 -64 64 -124 117 -132
117 -9 0 -16 4 -16 8 0 10 -130 85 -147 85 -7 0 -13 4 -13 9 0 5 -4 7 -9 4 -5
-4 -11 -3 -13 1 -4 10 -119 50 -191 67 l-57 13 0 -443 0 -444 248 0 c136 0
265 -5 286 -10 79 -18 127 -74 133 -152 5 -69 -24 -122 -86 -155 -44 -23 -46
-23 -412 -23 -236 0 -378 4 -396 11 -40 15 -73 48 -94 94 -17 38 -19 79 -19
678 0 691 1 713 51 749 16 12 26 25 23 30 -3 4 4 8 14 8 11 0 23 7 26 16 4 10
13 14 24 10 14 -5 14 -3 -2 9 -20 15 -20 15 0 16 10 0 14 3 7 5 -7 3 -9 12 -6
20 3 9 -1 14 -13 14 -20 0 -139 63 -169 90 -11 9 -32 20 -47 24 -16 3 -28 11
-28 16 0 6 -9 10 -20 10 -11 0 -20 6 -20 13 0 6 -10 13 -22 14 -13 1 -35 4
-50 8 -24 6 -28 4 -28 -15 0 -15 -5 -20 -17 -18 -26 5 -29 38 -4 38 16 0 21 6
21 26 0 25 -2 26 -35 21 -21 -3 -35 -2 -35 5 0 17 -61 68 -81 68 -30 0 -89 34
-139 81 -39 37 -51 42 -95 44 -42 2 -50 5 -50 21 0 12 -8 20 -22 22 -13 2 -23
10 -23 18 0 8 -9 14 -20 14 -11 0 -20 5 -20 10 0 6 -7 10 -15 10 -9 0 -25 9
-36 19 -21 19 -114 39 -126 27 -4 -3 -1 -6 5 -6 7 0 12 -4 12 -10 0 -5 -9 -10
-20 -10 -11 0 -20 7 -20 15 0 8 -9 15 -20 15 -11 0 -20 -6 -20 -12 0 -9 -3 -9
-8 -3 -8 13 -22 13 -41 1 -10 -6 -12 -6 -7 3 6 9 -1 12 -25 9 -24 -2 -33 -8
-31 -18 2 -11 -1 -11 -11 3 -16 19 -20 20 -31 10z m354 -73 c0 -5 -9 -10 -20
-10 -11 0 -20 5 -20 10 0 6 9 10 20 10 11 0 20 -4 20 -10z m140 -100 c0 -5 -4
-10 -10 -10 -5 0 -10 5 -10 10 0 6 5 10 10 10 6 0 10 -4 10 -10z m140 -70 c0
-21 -16 -25 -57 -14 -40 11 -28 34 17 34 33 0 40 -3 40 -20z m163 -82 c2 -13
7 -32 11 -43 5 -16 4 -16 -5 2 -8 15 -23 23 -48 25 -25 2 -37 8 -39 21 -3 14
4 17 36 17 33 0 40 -4 45 -22z m277 -153 c0 -19 5 -25 22 -25 12 0 19 -3 16
-6 -3 -3 -22 -2 -42 1 -29 6 -36 12 -36 31 0 17 6 24 20 24 15 0 20 -7 20 -25z
m40 -75 c0 -5 -9 -10 -20 -10 -11 0 -20 5 -20 10 0 6 9 10 20 10 11 0 20 -4
20 -10z m95 -10 c10 -11 13 -20 7 -20 -6 0 -14 5 -17 10 -3 6 -15 10 -26 10
-10 0 -19 5 -19 10 0 17 36 11 55 -10z m1505 -875 c0 -16 -60 -29 -74 -15 -24
24 -13 35 30 31 27 -2 44 -8 44 -16z m60 -29 c0 -3 -4 -8 -10 -11 -5 -3 -10
-1 -10 4 0 6 5 11 10 11 6 0 10 -2 10 -4z m75 -56 c10 -11 16 -20 13 -20 -3 0
-13 9 -23 20 -10 11 -16 20 -13 20 3 0 13 -9 23 -20z m145 -70 c0 -5 -8 -10
-17 -11 -15 0 -15 -2 2 -9 19 -8 19 -9 -2 -9 -17 -1 -23 5 -23 19 0 13 7 20
20 20 11 0 20 -4 20 -10z m67 -45 c8 -9 13 -19 10 -22 -6 -5 -37 21 -37 31 0
10 11 6 27 -9z m108 -45 c18 -20 17 -20 -18 -20 -30 0 -37 4 -37 20 0 13 7 20
18 20 11 0 27 -9 37 -20z m105 -70 c0 -12 -24 -12 -60 0 -21 7 -19 8 18 9 23
1 42 -3 42 -9z m-7 -37 c-7 -2 -19 -2 -25 0 -7 3 -2 5 12 5 14 0 19 -2 13 -5z"/>
<path d="M5063 6383 c-15 -5 -17 -23 -4 -23 5 0 11 7 15 15 3 8 4 15 3 14 -1
0 -8 -3 -14 -6z"/>
<path d="M7958 4702 c-11 -2 -16 -13 -16 -33 1 -28 18 -43 18 -15 0 8 5 16 11
18 18 6 6 34 -13 30z"/>
</g>
</svg>
